<svg width="107" height="170" viewBox="0 0 107 170" fill="none" xmlns="http://www.w3.org/2000/svg">
<path d="M42.9514 89.5552H63.1289C70.8681 89.5552 78.2902 92.6296 83.7626 98.102C89.235 103.574 92.3093 110.997 92.3093 118.736V155.341H13.771V118.736C13.771 110.997 16.8453 103.574 22.3177 98.102C27.7901 92.6296 35.2123 89.5552 42.9514 89.5552Z" fill="#F56132"/>
<path d="M92.3092 156.269H13.7709C13.5247 156.269 13.2887 156.171 13.1146 155.997C12.9406 155.823 12.8428 155.587 12.8428 155.341V118.736C12.8501 110.753 16.0246 103.099 21.6695 97.4538C27.3143 91.809 34.9683 88.6345 42.9513 88.6271H63.1288C71.1119 88.6345 78.7658 91.809 84.4106 97.4538C90.0555 103.099 93.23 110.753 93.2374 118.736V155.341C93.2374 155.587 93.1396 155.823 92.9655 155.997C92.7915 156.171 92.5554 156.269 92.3092 156.269ZM14.699 154.413H91.3811V118.736C91.3713 111.246 88.3916 104.065 83.0954 98.7691C77.7992 93.4729 70.6188 90.4932 63.1288 90.4834H42.9513C35.4614 90.4932 28.281 93.4729 22.9848 98.7691C17.6886 104.065 14.7089 111.246 14.699 118.736V154.413Z" fill="#093F68"/>
<path d="M72.6977 137.697C72.4515 137.697 72.2154 137.6 72.0414 137.425C71.8673 137.251 71.7695 137.015 71.7695 136.769V97.6949C71.7695 97.4488 71.8673 97.2127 72.0414 97.0387C72.2154 96.8646 72.4515 96.7668 72.6977 96.7668C72.9438 96.7668 73.1799 96.8646 73.3539 97.0387C73.528 97.2127 73.6258 97.4488 73.6258 97.6949V136.769C73.6258 137.015 73.528 137.251 73.3539 137.425C73.1799 137.6 72.9438 137.697 72.6977 137.697Z" fill="#093F68"/>
<path d="M33.3822 137.697C33.1361 137.697 32.9 137.6 32.7259 137.425C32.5519 137.251 32.4541 137.015 32.4541 136.769V97.6949C32.4541 97.4488 32.5519 97.2127 32.7259 97.0387C32.9 96.8646 33.1361 96.7668 33.3822 96.7668C33.6284 96.7668 33.8644 96.8646 34.0385 97.0387C34.2126 97.2127 34.3104 97.4488 34.3104 97.6949V136.769C34.3104 137.015 34.2126 137.251 34.0385 137.425C33.8644 137.6 33.6284 137.697 33.3822 137.697Z" fill="#093F68"/>
<path d="M12.7964 36.9117C12.7964 13.2351 30.4773 0.928131 52.279 0.928131C74.0808 0.928131 91.7617 13.2351 91.7617 36.9117C91.7617 60.5883 74.1272 79.782 52.279 79.782C30.4308 79.782 12.7964 60.5883 12.7964 36.9117Z" fill="#725858"/>
<path d="M52.2789 80.7102C30.0038 80.7102 11.8682 61.0617 11.8682 36.9117C11.8682 14.4881 27.7299 0 52.2789 0C76.828 0 92.6897 14.451 92.6897 36.9117C92.6897 61.0617 74.5633 80.7102 52.2789 80.7102ZM52.2789 1.81913C28.8622 1.81913 13.7244 15.5833 13.7244 36.8746C13.7244 60.0036 31.0248 78.8168 52.2789 78.8168C73.5331 78.8168 90.8335 60.0036 90.8335 36.8746C90.8335 15.6204 75.7049 1.85626 52.2789 1.85626V1.81913Z" fill="#093F68"/>
<path d="M46.645 83.5781H57.9125V90.075C57.9125 91.3452 57.408 92.5633 56.5098 93.4614C55.6117 94.3596 54.3935 94.8641 53.1234 94.8641H51.4249C50.1547 94.8641 48.9366 94.3596 48.0384 93.4614C47.1403 92.5633 46.6357 91.3452 46.6357 90.075V83.5781H46.645Z" fill="#FFC9B0"/>
<path d="M53.133 95.7737H51.4346C49.9183 95.7737 48.464 95.1714 47.3918 94.0992C46.3196 93.027 45.7173 91.5728 45.7173 90.0564V83.5595C45.7173 83.3134 45.8151 83.0773 45.9891 82.9032C46.1632 82.7292 46.3993 82.6314 46.6454 82.6314H57.9129C58.1591 82.6314 58.3951 82.7292 58.5692 82.9032C58.7433 83.0773 58.841 83.3134 58.841 83.5595V90.0564C58.841 91.5711 58.24 93.0239 57.1698 94.0959C56.0996 95.1678 54.6478 95.7712 53.133 95.7737ZM47.5643 84.5062V90.075C47.5643 91.099 47.971 92.0811 48.6951 92.8052C49.4192 93.5292 50.4013 93.936 51.4253 93.936H53.1238C53.6304 93.936 54.132 93.8361 54.5999 93.6419C55.0678 93.4478 55.4928 93.1632 55.8506 92.8046C56.2084 92.4459 56.4919 92.0202 56.685 91.5518C56.878 91.0835 56.9767 90.5816 56.9755 90.075V84.5062H47.5643Z" fill="#093F68"/>
<path d="M20.073 67.1316C26.1216 67.1316 31.025 62.9056 31.025 57.6925C31.025 52.4795 26.1216 48.2535 20.073 48.2535C14.0244 48.2535 9.12109 52.4795 9.12109 57.6925C9.12109 62.9056 14.0244 67.1316 20.073 67.1316Z" fill="#FFC9B0"/>
<path d="M20.0729 68.0598C13.5203 68.0598 8.19287 63.4191 8.19287 57.6925C8.19287 51.966 13.5203 47.3253 20.0729 47.3253C26.6255 47.3253 31.953 51.966 31.953 57.6925C31.953 63.4191 26.6255 68.0598 20.0729 68.0598ZM20.0729 49.1816C14.5042 49.1816 10.0491 53.0055 10.0491 57.6925C10.0491 62.3796 14.5413 66.2035 20.0729 66.2035C25.6046 66.2035 30.0967 62.3796 30.0967 57.6925C30.0967 53.0055 25.5953 49.1816 20.0729 49.1816Z" fill="#093F68"/>
<path d="M83.9099 67.1316C89.9585 67.1316 94.8619 62.9056 94.8619 57.6925C94.8619 52.4795 89.9585 48.2535 83.9099 48.2535C77.8613 48.2535 72.958 52.4795 72.958 57.6925C72.958 62.9056 77.8613 67.1316 83.9099 67.1316Z" fill="#FFC9B0"/>
<path d="M83.9098 68.0598C77.3572 68.0598 72.0298 63.4191 72.0298 57.6925C72.0298 51.966 77.3572 47.3253 83.9098 47.3253C90.4624 47.3253 95.7899 51.966 95.7899 57.6925C95.7899 63.4191 90.4624 68.0598 83.9098 68.0598ZM83.9098 49.1816C78.3875 49.1816 73.886 53.0055 73.886 57.6925C73.886 62.3796 78.3875 66.2035 83.9098 66.2035C89.4322 66.2035 93.9336 62.3796 93.9336 57.6925C93.9336 53.0055 89.4322 49.1816 83.9098 49.1816Z" fill="#093F68"/>
<path d="M72.5305 31.0367C67.8899 31.6864 63.175 32.1875 58.1352 31.3429C60.9196 28.2894 63.8154 24.7347 63.4905 20.6416C60.1074 25.0188 55.6755 28.4725 50.6044 30.6836C45.5334 32.8947 39.9867 33.7918 34.4772 33.292L44.1669 20.0662C36.8346 22.8506 29.2425 25.9691 23.9893 32.0483C18.2999 38.638 19.2837 47.0747 19.2837 55.4186C19.2102 59.8025 20.0102 64.157 21.637 68.2285C23.2638 72.3 25.6848 76.0068 28.759 79.133C31.8332 82.2591 35.499 84.742 39.5426 86.4368C43.5862 88.1316 47.9268 89.0044 52.3112 89.0044C56.6956 89.0044 61.0362 88.1316 65.0798 86.4368C69.1235 84.742 72.7892 82.2591 75.8634 79.133C78.9376 76.0068 81.3586 72.3 82.9854 68.2285C84.6122 64.157 85.4122 59.8025 85.3387 55.4186V29.7373C81.0435 29.8592 76.7628 30.2935 72.5305 31.0367Z" fill="#FFC9B0"/>
<path d="M52.2791 89.3789C43.2769 89.3666 34.6471 85.7844 28.2825 79.418C21.9178 73.0517 18.338 64.4208 18.3282 55.4186C18.3282 54.3513 18.3282 53.2747 18.3282 52.2073C18.2261 44.9586 18.1054 37.45 23.3029 31.445C28.5005 25.44 36.009 22.1637 43.8517 19.1937C44.0389 19.1229 44.2439 19.1144 44.4363 19.1696C44.6286 19.2248 44.798 19.3407 44.9191 19.5C45.0396 19.6607 45.1047 19.8561 45.1047 20.0569C45.1047 20.2577 45.0396 20.4531 44.9191 20.6138L36.2132 32.4938C41.3119 32.6916 46.3841 31.6687 51.0077 29.5103C55.6313 27.3519 59.6724 24.1204 62.7949 20.0847C62.9081 19.9337 63.0648 19.8208 63.2439 19.7611C63.423 19.7014 63.616 19.6977 63.7972 19.7506C63.9784 19.8028 64.1394 19.9089 64.2587 20.0548C64.3781 20.2007 64.4502 20.3795 64.4655 20.5674C64.7625 24.4005 62.6092 27.6676 60.0198 30.6654C64.169 30.9997 68.3437 30.8157 72.4474 30.1178L74.3037 29.8487C77.9571 29.2499 81.6474 28.9026 85.3484 28.8092C85.5946 28.8092 85.8306 28.9069 86.0047 29.081C86.1788 29.2551 86.2765 29.4911 86.2765 29.7373V55.4186C86.2667 64.4289 82.6805 73.0667 76.3058 79.4344C69.9311 85.8021 61.2894 89.3789 52.2791 89.3789ZM41.5128 22.0802C34.8396 24.7439 29.0016 27.649 24.6673 32.6609C19.9338 38.1276 20.0266 44.9586 20.1473 52.1516V55.3908C20.0748 59.6521 20.8516 63.8851 22.4322 67.8431C24.0128 71.801 26.3656 75.4047 29.3535 78.4438C32.3414 81.4829 35.9045 83.8967 39.835 85.5444C43.7655 87.192 47.9848 88.0406 52.2467 88.0406C56.5086 88.0406 60.7278 87.192 64.6583 85.5444C68.5888 83.8967 72.1519 81.4829 75.1398 78.4438C78.1277 75.4047 80.4805 71.801 82.0612 67.8431C83.6418 63.8851 84.4185 59.6521 84.346 55.3908V30.6747C81.0429 30.8107 77.7512 31.1486 74.4893 31.6864L72.633 31.9555C68.0945 32.5866 63.2125 33.1342 57.9593 32.2618C57.7943 32.2351 57.6395 32.1643 57.5114 32.0569C57.3833 31.9495 57.2866 31.8095 57.2314 31.6517C57.1763 31.4939 57.1648 31.3241 57.1981 31.1603C57.2315 30.9965 57.3085 30.8448 57.421 30.7211C59.4257 28.4936 61.3841 26.1454 62.1823 23.6116C58.6542 27.3813 54.3119 30.2957 49.4866 32.1325C44.6612 33.9694 39.4802 34.6802 34.3384 34.2109C34.176 34.1938 34.021 34.1342 33.889 34.038C33.757 33.9419 33.6527 33.8126 33.5866 33.6633C33.5188 33.5141 33.4916 33.3497 33.5079 33.1867C33.5243 33.0237 33.5834 32.8679 33.6794 32.7351L41.5128 22.0802Z" fill="#093F68"/>
<path d="M36.993 53.6645C38.6794 53.6645 40.0465 52.2973 40.0465 50.6109C40.0465 48.9245 38.6794 47.5574 36.993 47.5574C35.3066 47.5574 33.9395 48.9245 33.9395 50.6109C33.9395 52.2973 35.3066 53.6645 36.993 53.6645Z" fill="#093F68"/>
<path d="M68.5306 53.6645C70.217 53.6645 71.5841 52.2973 71.5841 50.6109C71.5841 48.9245 70.217 47.5574 68.5306 47.5574C66.8442 47.5574 65.4771 48.9245 65.4771 50.6109C65.4771 52.2973 66.8442 53.6645 68.5306 53.6645Z" fill="#093F68"/>
<path d="M52.1121 61.7856C51.1169 61.7839 50.1235 61.7001 49.142 61.535C48.9014 61.4919 48.6875 61.3557 48.5468 61.1559C48.406 60.956 48.3498 60.7087 48.3903 60.4677C48.4105 60.3467 48.4544 60.231 48.5196 60.1272C48.5848 60.0234 48.6699 59.9335 48.77 59.8627C48.8701 59.792 48.9832 59.7417 49.1028 59.7149C49.2224 59.6881 49.3462 59.6853 49.4669 59.7066C50.976 59.9519 52.5149 59.9519 54.024 59.7066C54.2282 58.8527 53.0959 55.5579 51.4531 52.4486C51.3454 52.2315 51.327 51.9808 51.4017 51.7502C51.4764 51.5196 51.6383 51.3274 51.8529 51.2147C52.0675 51.1019 52.3176 51.0776 52.5499 51.1469C52.7822 51.2162 52.9781 51.3736 53.0959 51.5855C53.9312 53.1911 56.5857 58.5557 55.6854 60.5512C55.5867 60.7799 55.4366 60.9826 55.2466 61.1436C55.0566 61.3046 54.8319 61.4195 54.5902 61.4793C53.7793 61.6801 52.9474 61.7829 52.1121 61.7856Z" fill="#093F68"/>
<path d="M43.2393 41.6266H28.6583C28.267 41.6266 27.8916 41.4711 27.6148 41.1944C27.3381 40.9176 27.1826 40.5423 27.1826 40.1509C27.1826 39.7595 27.3381 39.3842 27.6148 39.1074C27.8916 38.8306 28.267 38.6752 28.6583 38.6752H43.2485C43.6399 38.6752 44.0153 38.8306 44.292 39.1074C44.5688 39.3842 44.7243 39.7595 44.7243 40.1509C44.7243 40.5423 44.5688 40.9176 44.292 41.1944C44.0153 41.4711 43.6399 41.6266 43.2485 41.6266H43.2393Z" fill="#093F68"/>
<path d="M64.0294 41.9793C63.638 41.9892 63.2588 41.8431 62.9751 41.5733C62.6913 41.3035 62.5264 40.9321 62.5166 40.5407C62.5067 40.1493 62.6528 39.7701 62.9226 39.4863C63.1923 39.2026 63.5638 39.0377 63.9552 39.0279L78.5175 38.2854C78.7177 38.2629 78.9203 38.2817 79.1129 38.3405C79.3056 38.3993 79.4841 38.4969 79.6376 38.6273C79.7911 38.7577 79.9162 38.9182 80.0054 39.0988C80.0945 39.2794 80.1457 39.4763 80.1559 39.6775C80.166 39.8786 80.1349 40.0797 80.0644 40.2684C79.9939 40.4571 79.8855 40.6293 79.746 40.7745C79.6064 40.9197 79.4386 41.0348 79.2529 41.1127C79.0671 41.1906 78.8674 41.2297 78.666 41.2275L64.1037 41.9793H64.0294Z" fill="#093F68"/>
<path d="M54.3584 74.5752C47.4624 74.5752 40.0652 70.7885 39.6197 70.5564C39.4019 70.4419 39.2385 70.2456 39.1654 70.0106C39.0923 69.7757 39.1155 69.5213 39.2299 69.3035C39.3444 69.0881 39.5391 68.9265 39.7718 68.8535C40.0046 68.7806 40.2567 68.8022 40.4736 68.9136C40.6221 68.9879 54.739 76.1995 61.0688 70.575C61.2571 70.4088 61.5037 70.3243 61.7544 70.34C62.005 70.3556 62.2392 70.4702 62.4053 70.6585C62.5715 70.8468 62.656 71.0934 62.6404 71.3441C62.6247 71.5947 62.5101 71.8289 62.3218 71.995C60.0788 73.8122 57.2409 74.7316 54.3584 74.5752Z" fill="#093F68"/>
<path d="M6.41992 104.619L11.9423 101.008L52.3345 112.777V146.218L6.41992 104.619Z" fill="white"/>
<path d="M52.3256 147.174C52.0968 147.175 51.8754 147.093 51.7038 146.942L5.7985 105.306C5.69328 105.21 5.61143 105.091 5.55929 104.959C5.50714 104.827 5.4861 104.684 5.49776 104.543C5.50941 104.401 5.55347 104.264 5.62653 104.142C5.6996 104.02 5.79971 103.916 5.91915 103.839L11.4879 100.229C11.5995 100.157 11.7251 100.11 11.8564 100.09C11.9877 100.071 12.1216 100.08 12.249 100.117L52.5855 111.905C52.7845 111.962 52.9585 112.085 53.0796 112.254C53.2007 112.422 53.262 112.626 53.2538 112.833V146.245C53.2552 146.426 53.2042 146.602 53.107 146.754C53.0097 146.905 52.8705 147.025 52.7062 147.099C52.586 147.151 52.4563 147.176 52.3256 147.174ZM7.93319 104.73L51.3975 144.12V113.492L12.1005 102.029L7.93319 104.73Z" fill="#093F68"/>
<path d="M98.2401 104.619L93.0426 101.008L52.6597 112.777V146.218L98.2401 104.619Z" fill="white"/>
<path d="M52.6593 147.174C52.5318 147.175 52.4054 147.149 52.2881 147.099C52.1221 147.027 51.9809 146.907 51.8819 146.756C51.783 146.604 51.7306 146.427 51.7312 146.245V112.833C51.723 112.626 51.7843 112.422 51.9054 112.254C52.0265 112.085 52.2004 111.962 52.3995 111.905L92.7824 100.136C92.9159 100.095 93.0571 100.084 93.1953 100.105C93.3335 100.126 93.4652 100.178 93.5806 100.257L98.7688 103.867C98.8826 103.948 98.9768 104.053 99.0443 104.175C99.1118 104.297 99.1509 104.433 99.1586 104.572C99.1676 104.71 99.1456 104.849 99.0942 104.977C99.0428 105.106 98.9634 105.221 98.8616 105.315L53.2905 146.914C53.1207 147.077 52.8951 147.17 52.6593 147.174ZM53.5875 113.51V144.139L96.7548 104.739L92.8845 102.048L53.5875 113.51Z" fill="#093F68"/>
<path d="M47.4989 169.05L6.41992 156.195V104.619L47.4989 117.473V169.05Z" fill="#68E1FD"/>
<path d="M47.4715 169.978C47.3823 169.992 47.2915 169.992 47.2023 169.978L6.11404 157.123C5.91847 157.062 5.74868 156.938 5.63115 156.77C5.51363 156.602 5.45498 156.4 5.46435 156.195V104.619C5.46397 104.472 5.49824 104.328 5.56438 104.197C5.63051 104.067 5.72663 103.953 5.84487 103.867C5.96201 103.781 6.09781 103.723 6.2413 103.699C6.38479 103.675 6.53195 103.685 6.67091 103.728L47.7778 116.545C47.9734 116.607 48.1431 116.731 48.2607 116.899C48.3782 117.067 48.4368 117.269 48.4275 117.473V169.05C48.4275 169.194 48.3939 169.336 48.3295 169.465C48.265 169.594 48.1715 169.706 48.0562 169.792C47.888 169.918 47.6818 169.984 47.4715 169.978ZM7.34845 155.527L46.5434 167.787V118.151L7.32061 105.881L7.34845 155.527Z" fill="#093F68"/>
<path d="M98.2402 156.195L57.1611 169.05V117.473L98.2402 104.619V156.195Z" fill="#68E1FD"/>
<path d="M57.1605 169.978C56.9597 169.978 56.7643 169.913 56.6037 169.792C56.4884 169.706 56.3948 169.594 56.3304 169.465C56.266 169.336 56.2324 169.194 56.2324 169.05V117.473C56.223 117.269 56.2817 117.067 56.3992 116.899C56.5167 116.731 56.6865 116.607 56.8821 116.545L97.9611 103.691C98.1001 103.647 98.2473 103.638 98.3907 103.662C98.5342 103.686 98.67 103.744 98.7872 103.83C98.9054 103.916 99.0015 104.029 99.0677 104.16C99.1338 104.291 99.1681 104.435 99.1677 104.582V156.149C99.1771 156.353 99.1184 156.555 99.0009 156.723C98.8834 156.891 98.7136 157.015 98.518 157.077L57.4297 169.931C57.343 169.961 57.2522 169.977 57.1605 169.978ZM58.0887 118.151V167.787L97.3114 155.527V105.881L58.0887 118.151Z" fill="#093F68"/>
<path d="M67.9828 136.964C67.7868 136.961 67.5961 136.9 67.4352 136.788C67.317 136.701 67.2209 136.588 67.1547 136.458C67.0886 136.327 67.0543 136.182 67.0547 136.036V124.063C67.0548 123.867 67.1168 123.677 67.2319 123.518C67.3469 123.36 67.509 123.242 67.6951 123.181L89.6361 116.09C89.7757 116.044 89.9242 116.032 90.0694 116.055C90.2146 116.077 90.3524 116.134 90.4714 116.22C90.5896 116.307 90.6858 116.42 90.7519 116.551C90.818 116.681 90.8523 116.826 90.8519 116.972V128.611C90.8505 128.804 90.7889 128.992 90.6758 129.148C90.5627 129.304 90.4037 129.422 90.2208 129.483L68.2798 136.908C68.1837 136.94 68.0838 136.959 67.9828 136.964ZM68.911 124.787V134.746L88.9957 127.952V118.299L68.911 124.787Z" fill="#093F68"/>
<path d="M57.1611 169.05H47.5086V117.473H57.1611V169.05Z" fill="#68E1FD"/>
<path d="M57.1608 169.978H47.4711C47.2249 169.978 46.9889 169.88 46.8148 169.706C46.6408 169.532 46.543 169.296 46.543 169.05V117.473C46.543 117.227 46.6408 116.991 46.8148 116.817C46.9889 116.643 47.2249 116.545 47.4711 116.545H57.1329C57.3791 116.545 57.6152 116.643 57.7892 116.817C57.9633 116.991 58.0611 117.227 58.0611 117.473V169.05C58.0612 169.291 57.9672 169.523 57.7991 169.696C57.6311 169.869 57.4021 169.97 57.1608 169.978ZM48.4271 168.121H56.2326V118.402H48.3992L48.4271 168.121Z" fill="#093F68"/>
<path d="M12.3601 128.23C13.0376 128.555 13.7987 129.047 13.7894 129.799C13.752 130.122 13.6041 130.423 13.3707 130.649C13.1373 130.876 12.8327 131.015 12.5086 131.043C11.856 131.081 11.2037 130.964 10.6059 130.699C11.4534 131.01 12.2163 131.516 12.8334 132.175C13.1385 132.507 13.3228 132.932 13.3565 133.382C13.3902 133.831 13.2713 134.279 13.019 134.653C12.3601 135.433 11.1628 135.331 10.1511 135.164C10.9086 135.455 11.6115 135.872 12.2301 136.398C12.5369 136.665 12.7728 137.004 12.9169 137.385C13.061 137.765 13.1089 138.176 13.0562 138.579C12.8241 139.767 11.4319 140.435 10.2161 140.324C11.3113 140.937 12.5828 141.883 12.3508 143.108C12.1187 144.333 10.6894 144.742 9.5107 144.695C7.83579 144.561 6.23145 143.962 4.87742 142.967C3.52339 141.972 2.47315 140.62 1.84434 139.062C0.624151 135.909 0.624151 132.414 1.84434 129.261C2.48475 127.488 3.42217 125.789 5.47333 125.947C7.88393 126.303 10.2142 127.076 12.3601 128.23Z" fill="#FFC9B0"/>
<path d="M9.64994 145.642H9.47359C7.62357 145.502 5.84939 144.848 4.35069 143.755C2.852 142.661 1.68827 141.171 0.990486 139.451C-0.330162 136.08 -0.330162 132.335 0.990486 128.964C1.39886 127.822 2.49406 124.806 5.56617 125.047C8.08459 125.4 10.5201 126.199 12.7592 127.404C14.0678 128.026 14.7268 128.843 14.7175 129.818C14.7133 130.199 14.6069 130.572 14.4094 130.899C14.2119 131.225 13.9305 131.493 13.5945 131.674C14.0168 132.176 14.2589 132.805 14.2825 133.461C14.306 134.117 14.1096 134.762 13.7244 135.293C13.5209 135.54 13.272 135.744 12.9912 135.897C13.3736 136.268 13.6616 136.726 13.8311 137.231C14.0006 137.736 14.0468 138.275 13.9657 138.802C13.8726 139.236 13.6823 139.644 13.409 139.995C13.1357 140.345 12.7866 140.629 12.3879 140.825C12.7318 141.138 12.9918 141.532 13.1442 141.972C13.2966 142.411 13.3366 142.882 13.2604 143.34C12.9448 144.918 11.1999 145.633 9.64994 145.642ZM5.24132 126.875C4.15541 126.875 3.38506 127.683 2.74465 129.576C1.58256 132.507 1.56599 135.767 2.69824 138.709C3.2542 140.106 4.18892 141.321 5.39732 142.216C6.60571 143.111 8.03988 143.652 9.53857 143.777C10.3832 143.777 11.3299 143.498 11.3948 142.941C11.4598 142.384 10.411 141.512 9.72419 141.131C9.53891 141.028 9.39459 140.865 9.31527 140.668C9.23596 140.471 9.22644 140.253 9.28829 140.05C9.35014 139.847 9.47964 139.672 9.65521 139.553C9.83078 139.434 10.0418 139.378 10.2532 139.396C11.0236 139.452 11.9795 139.062 12.1095 138.393C12.1294 138.145 12.0892 137.896 11.9922 137.666C11.8953 137.437 11.7445 137.234 11.5526 137.075C10.9971 136.619 10.3699 136.259 9.69635 136.008C9.49656 135.912 9.33791 135.747 9.24914 135.544C9.16036 135.34 9.14733 135.112 9.21241 134.9C9.27749 134.688 9.41637 134.506 9.6039 134.388C9.79142 134.269 10.0152 134.222 10.2347 134.254C10.9215 134.365 11.8774 134.467 12.2301 134.059C12.3353 133.849 12.3739 133.613 12.3407 133.38C12.3076 133.148 12.2042 132.932 12.0445 132.76C11.5189 132.228 10.8861 131.813 10.1883 131.544C9.9751 131.442 9.80889 131.262 9.72353 131.042C9.63816 130.822 9.64005 130.577 9.72884 130.358C9.81762 130.139 9.98661 129.962 10.2013 129.863C10.416 129.765 10.6603 129.752 10.8844 129.827C11.3456 130.032 11.8462 130.133 12.3508 130.124C12.6292 130.124 12.8334 129.882 12.8334 129.79C12.8334 129.697 12.6478 129.409 11.9053 129.066C9.8795 127.974 7.68233 127.237 5.40838 126.885L5.24132 126.875Z" fill="#093F68"/>
<path d="M93.7199 128.23C93.0424 128.555 92.2813 129.047 92.2906 129.799C92.3279 130.122 92.4759 130.423 92.7093 130.649C92.9427 130.876 93.2473 131.015 93.5714 131.043C94.224 131.081 94.8763 130.964 95.4741 130.699C94.6266 131.01 93.8637 131.516 93.2466 132.175C92.9415 132.507 92.7572 132.932 92.7235 133.382C92.6898 133.831 92.8087 134.279 93.061 134.653C93.7199 135.433 94.9172 135.331 95.9289 135.164C95.1714 135.455 94.4685 135.872 93.8499 136.398C93.5431 136.665 93.3072 137.004 93.1631 137.385C93.019 137.765 92.9711 138.176 93.0238 138.579C93.2559 139.767 94.6481 140.435 95.8639 140.324C94.7687 140.937 93.4972 141.883 93.7292 143.108C93.9612 144.333 95.3906 144.742 96.5693 144.695C98.2442 144.561 99.8485 143.962 101.203 142.967C102.557 141.972 103.607 140.62 104.236 139.062C105.456 135.909 105.456 132.414 104.236 129.261C103.595 127.488 102.658 125.789 100.607 125.947C98.1961 126.303 95.8658 127.076 93.7199 128.23Z" fill="#FFC9B0"/>
<path d="M96.4392 145.642C94.8799 145.642 93.135 144.918 92.8195 143.294C92.7433 142.835 92.7832 142.365 92.9356 141.925C93.088 141.486 93.348 141.092 93.6919 140.779C93.2932 140.583 92.9441 140.299 92.6708 139.948C92.3976 139.598 92.2072 139.19 92.1141 138.755C92.033 138.229 92.0792 137.69 92.2487 137.185C92.4183 136.679 92.7062 136.222 93.0886 135.85C92.8079 135.698 92.559 135.493 92.3554 135.247C91.9702 134.716 91.7738 134.071 91.7974 133.415C91.8209 132.759 92.0631 132.13 92.4853 131.627C92.1493 131.447 91.8679 131.179 91.6704 130.853C91.4729 130.526 91.3665 130.153 91.3623 129.771C91.3623 128.843 92.012 127.98 93.3207 127.358C95.5597 126.152 97.9952 125.354 100.514 125.001C103.586 124.759 104.681 127.785 105.089 128.917C106.41 132.288 106.41 136.034 105.089 139.405C104.392 141.124 103.228 142.614 101.729 143.708C100.23 144.802 98.4563 145.456 96.6062 145.596L96.4392 145.642ZM95.8637 139.396C96.0684 139.396 96.2672 139.465 96.4291 139.59C96.5909 139.715 96.7068 139.891 96.7587 140.089C96.8106 140.287 96.7956 140.496 96.716 140.685C96.6364 140.874 96.4966 141.031 96.3185 141.131C95.6317 141.512 94.5087 142.254 94.6479 142.941C94.7871 143.628 95.6781 143.795 96.5042 143.777C98.0028 143.652 99.437 143.111 100.645 142.216C101.854 141.321 102.789 140.106 103.344 138.709C104.477 135.767 104.46 132.507 103.298 129.576C102.583 127.571 101.813 126.792 100.616 126.885C98.3418 127.237 96.1446 127.974 94.1189 129.066C93.4042 129.409 93.1907 129.688 93.1907 129.79C93.1907 129.892 93.3949 130.087 93.6734 130.124C94.178 130.133 94.6786 130.032 95.1398 129.827C95.3638 129.752 95.6081 129.765 95.8228 129.863C96.0375 129.962 96.2065 130.139 96.2953 130.358C96.3841 130.577 96.386 130.822 96.3006 131.042C96.2153 131.262 96.0491 131.442 95.8359 131.544C95.138 131.813 94.5053 132.228 93.9796 132.76C93.82 132.932 93.7166 133.148 93.6834 133.38C93.6502 133.613 93.6888 133.849 93.794 134.059C94.1467 134.477 95.1027 134.365 95.7895 134.254C96.009 134.222 96.2327 134.269 96.4203 134.388C96.6078 134.506 96.7467 134.688 96.8117 134.9C96.8768 135.112 96.8638 135.34 96.775 135.544C96.6862 135.747 96.5276 135.912 96.3278 136.008C95.6543 136.259 95.027 136.619 94.4715 137.075C94.2797 137.234 94.1289 137.437 94.0319 137.666C93.935 137.896 93.8948 138.145 93.9147 138.393C94.0446 139.062 95.0099 139.461 95.7709 139.396H95.8637Z" fill="#093F68"/>
</svg>
